<svg xmlns="http://www.w3.org/2000/svg" width="60.942" height="60.079" viewBox="0 0 63.12 61.9"><defs><style>.cls-1,.cls-2{fill:none;stroke:#f7931d;stroke-width:2px;}.cls-1{stroke-miterlimit:10;}.cls-2{stroke-linejoin:round;}</style></defs><title>icon-</title><g id="Layer_3" data-name="Layer 3"><path class="cls-1" d="M16.57,40.94a5.12,5.12,0,0,0,5-5.35V33.8a5.12,5.12,0,0,0-5-5.35,5.12,5.12,0,0,0-5,5.35v1.79A5.12,5.12,0,0,0,16.57,40.94Z"/><path class="cls-2" d="M21.57,60.92V52.18L25,53.87a2.5,2.5,0,0,0,2.88-.47l3.72-3.72c2.76-2.55,3.28-5,1.25-7.49-2.55,2.18-4.94,4.11-6.25,5-1.66-.88-4.89-2.39-7.49-2.49H12.83c-4.48,0-7.5,1.88-7.5,7.49v8.74"/><line class="cls-1" x1="10.33" y1="52.18" x2="10.33" y2="60.92"/><path class="cls-2" d="M34.06,31h7.49M37.81,13.46A7.49,7.49,0,0,0,30.32,21a7.59,7.59,0,0,0,2.33,5.43,5,5,0,0,1,1.41,3.56v6l2.5,1.25h2.49l2.5-1.25v-6A5,5,0,0,1,43,26.38a7.48,7.48,0,0,0-5.15-12.92Zm0-3.74V1m-8,12L26.32,9.48M26.56,21H17.82m12,7.94-3.54,3.54M45.75,28.9l3.53,3.54M49,21h8.75m-12-8,3.53-3.53"/><path class="cls-1" d="M37.8,23.45v5M35.31,22.2l2.49,1.25,2.5-1.25"/></g></svg>