<svg xmlns="http://www.w3.org/2000/svg" width="60.942" height="60.079" viewBox="0 0 63.12 61.9"><defs><style>.cls-1{fill:none;stroke:#f7931d;stroke-linejoin:round;stroke-width:2px;}</style></defs><title>icon-</title><g id="Layer_5" data-name="Layer 5"><path class="cls-1" d="M3.44,43.73V37.34H7.27V32.23c0-9.54,5.8-17,14.06-20.46v9"/><path class="cls-1" d="M55.85,41.17v2.56c0,4-10.44,9-24.29,9s-24.29-5-24.29-9V41.17"/><path class="cls-1" d="M50.73,41.17c-3.36,1.46-10.1,2.56-19.17,2.56s-15.81-1.1-19.17-2.56"/><polyline class="cls-1" points="36.67 23.28 36.67 9.22 31.56 9.22 26.45 9.22 26.45 23.28"/><path class="cls-1" d="M59.68,43.73V37.34H55.85V32.23c0-9.54-5.8-17-14.06-20.46v9"/></g></svg>