<svg xmlns="http://www.w3.org/2000/svg" width="60.942" height="60.079" viewBox="0 0 63.12 61.9"><defs><style>.cls-1{fill:none;stroke:#f7931d;stroke-linecap:round;stroke-miterlimit:10;stroke-width:2px;}</style></defs><title>icon-</title><g id="Layer_4" data-name="Layer 4"><path class="cls-1" d="M60.59,31.28l-4,2.32a.73.73,0,0,1-1-.27L45.5,15.9a.75.75,0,0,1,.27-1l4-2.31a.73.73,0,0,1,1,.27L60.86,30.27A.74.74,0,0,1,60.59,31.28ZM6.21,33.51l-3.54-2a1,1,0,0,1-.37-1.39L12,13.21a1,1,0,0,1,1.39-.37L17,14.89a1,1,0,0,1,.38,1.38L7.6,33.14A1,1,0,0,1,6.21,33.51ZM16.48,17.76A9.22,9.22,0,0,0,21,20.15a16.47,16.47,0,0,1,2.75.66m13.4,13.32s7.76,5,8.61,5.5-.51,3.95-3.49,3.55m-7.78-4.71s6.17,4,7.54,4.74-.62,4.23-3,3.29-6.87-3.29-6.87-3.29m6.21,3.45s-1.95,4.19-9.49.82M9.22,30.88l3.51,4.49M46.49,18.2c-.76.13-2.13.89-3.55.66s-5.9-1.33-7.77-1.33a77.78,77.78,0,0,0-7.8.69c-1.16.2-2,.38-2.44,1.11s-4,6-4.31,6.68-1.11,3.37,2.58,2.48a8.67,8.67,0,0,0,5.32-4.21l2.17-.93a18,18,0,0,1,1.87.93c2.35,1.37,14.82,8.43,16.41,11s.05,5-2.62,4.57m7.41-9S52,34.35,49.62,35.06m-36.87,4.8-.31-.23A2.28,2.28,0,0,1,12,36.44l1.27-1.72a2.27,2.27,0,0,1,3.19-.48l.31.23a2.29,2.29,0,0,1,.48,3.19l-1.28,1.72A2.28,2.28,0,0,1,12.75,39.86ZM16,43.57h0a2.46,2.46,0,0,1-.52-3.45L19.24,35a2.47,2.47,0,1,1,4,2.94l-3.78,5.1A2.46,2.46,0,0,1,16,43.57Zm4,3.22-.16-.11a2.39,2.39,0,0,1-.49-3.33l3.35-4.54A2.39,2.39,0,0,1,26,38.32l.15.11a2.37,2.37,0,0,1,.5,3.32l-3.36,4.54A2.37,2.37,0,0,1,20,46.79ZM24.93,49l-.68-.51a2,2,0,0,1-.43-2.86l2-2.74a2,2,0,0,1,2.86-.43l.68.5a2,2,0,0,1,.43,2.86l-2,2.75A2,2,0,0,1,24.93,49Z"/></g></svg>