<svg xmlns="http://www.w3.org/2000/svg" width="60.942" height="60.079" viewBox="0 0 63.12 61.9"><defs><style>.cls-1{fill:none;stroke:#f7931d;stroke-miterlimit:10;stroke-width:2px;}</style></defs><title>icon-</title><g id="Layer_1" data-name="Layer 1"><path class="cls-1" d="M37.72,45.1V23.41l8.72-8.27a5.92,5.92,0,0,0,.23-7.67L36.49,16.74A5.58,5.58,0,0,1,32.87,18H30.18a5.52,5.52,0,0,1-3.55-1.24L16.16,7.53a5.88,5.88,0,0,0,.27,7.64l9,8.24V45.1"/><line class="cls-1" x1="31.56" y1="32.77" x2="31.56" y2="45.1"/><polyline class="cls-1" points="21.7 59.9 21.7 47.57 41.42 47.57 41.42 59.9"/><polyline class="cls-1" points="41.42 59.9 41.42 52.5 59.92 52.5 59.92 59.9"/><polyline class="cls-1" points="3.2 59.9 3.2 56.2 21.7 56.2 21.7 59.9"/><path class="cls-1" d="M31.56,13.06a4.69,4.69,0,0,0,4.93-4.74V6.74A4.69,4.69,0,0,0,31.56,2a4.69,4.69,0,0,0-4.93,4.74V8.32A4.69,4.69,0,0,0,31.56,13.06Z"/></g></svg>